<svg xmlns="http://www.w3.org/2000/svg" version="1.1" xmlns:xlink="http://www.w3.org/1999/xlink" xmlns:svgjs="http://svgjs.dev/svgjs" width="128" height="128" viewBox="0 0 128 128"><g transform="matrix(0.8046875,0,0,0.8046875,12.418474334200567,11.903637146796193)"><svg viewBox="0 0 95 96" data-background-color="#102e44" preserveAspectRatio="xMidYMid meet" height="129" width="128" xmlns="http://www.w3.org/2000/svg" xmlns:xlink="http://www.w3.org/1999/xlink"><g id="tight-bounds" transform="matrix(1,0,0,1,0.07857690354151714,0.21714696222272778)"><svg viewBox="0 0 94.79461501778435 95.481" height="95.481" width="94.79461501778435"><g><svg viewBox="0 0 94.79461501778435 95.481" height="95.481" width="94.79461501778435"><g><svg viewBox="0 0 94.79461501778435 95.481" height="95.481" width="94.79461501778435"><g id="textblocktransform"><svg viewBox="0 0 94.79461501778435 95.481" height="95.481" width="94.79461501778435" id="textblock"><g><svg viewBox="0 0 94.79461501778435 95.481" height="95.481" width="94.79461501778435"><g><svg viewBox="0 0 94.79461501778435 95.481" height="95.481" width="94.79461501778435"><g><svg width="94.79461501778435" height="95.481" version="1.1" viewBox="5.340917337219896 4.994658401697745 89.32372241434092 89.9704939805243" xmlns="http://www.w3.org/2000/svg" x="0" y="0" class="icon-icon-0" data-fill-palette-color="accent" id="icon-0"><path d="M49 32.441A2.34 2.34 0 0 0 47.352 33.191L38 43.199A1.2 1.2 0 0 1 36.238 43.199L33.297 39.949H33.3A2.362 2.362 0 0 0 29.8 43.12L35.17 49.062 35.482 49.402V49.398A2.375 2.375 0 0 0 38.828 49.281L50.828 36.429A2.368 2.368 0 0 0 49.012 32.429zM45.602 31.562V31.558A4.77 4.77 0 0 1 52.602 38.038L40.602 50.892A4.757 4.757 0 0 1 33.602 50.89L33.39 50.64 28 44.71A4.76 4.76 0 0 1 27.23 39.492 4.74 4.74 0 0 1 31.75 36.782 4.7 4.7 0 0 1 35.04 38.34L37.11 40.62 45.53 31.562zM92.32 73.562L85.828 55.21A0.13 0.13 0 0 0 85.672 55.128L79.962 57.128A0.144 0.144 0 0 0 79.878 57.3L86 74.648V74.718C86.36 75.718 86.29 75.788 86.59 75.718L92.2 73.718A0.13 0.13 0 0 0 92.282 73.55zM37.79 75.48L46.212 58A0.13 0.13 0 0 0 46.149 57.82L40.708 55.2H40.712A0.14 0.14 0 0 0 40.532 55.261C37.942 60.722 35.063 66.262 32.532 71.75 32.332 72.113 32.176 72.5 32.059 72.898 32.071 72.93 32.09 72.957 32.122 72.968L37.57 75.59A0.14 0.14 0 0 0 37.75 75.53zM55 85.941L56.72 83.941C57.04 83.57 57.105 83.043 56.886 82.605S56.207 81.906 55.72 81.941A1.25 1.25 0 0 0 54.9 82.351L51.04 86.84A1.209 1.209 0 0 0 52.04 88.84 1.25 1.25 0 0 0 52.86 88.43zM54.68 89.941L56.82 87.453V87.449A1.212 1.212 0 0 1 58.642 89.03L56.501 91.51A1.17 1.17 0 0 1 55.68 91.921 1.2 1.2 0 0 1 54.68 89.922zM59 61.59L60.61 60.2A2.93 2.93 0 0 1 63.122 59.518L72.922 61.327C73.844 61.511 74.797 61.437 75.68 61.12L78.4 60.171 83.4 74.371C82.27 74.76 81.4 74.94 80.68 75.99V75.987A6 6 0 0 1 76.45 78.851L62.27 66.71A2.74 2.74 0 0 0 60.074 66.06 2.76 2.76 0 0 0 58.15 67.3 4.9 4.9 0 0 0 57.48 69.3 7.95 7.95 0 0 1 56.21 73.628 2.73 2.73 0 0 1 53.81 74.628 27 27 0 0 0 53.809 70.628 12.2 12.2 0 0 0 53.199 67.46C53.189 67.217 53.232 66.98 53.322 66.76 53.446 66.467 53.637 66.21 53.879 66.01L58.821 61.73A0.5 0.5 0 0 0 58.93 61.627zM43.303 77.59C42.712 76.82 42.973 76.327 42.302 75.52A3.45 3.45 0 0 0 40.91 74.519L47.411 60.999 50.333 62.397H50.329C50.52 62.483 50.724 62.522 50.931 62.51L54.61 62.23 52.34 64.23A4.4 4.4 0 0 0 51.14 65.877 3.75 3.75 0 0 0 50.932 68.17 16.7 16.7 0 0 1 51.399 74.78 1.2 1.2 0 0 0 51.4 75.07 2.2 2.2 0 0 0 53.4 77.07 5.01 5.01 0 0 0 58.032 75.248 10.1 10.1 0 0 0 59.822 69.609C59.855 69.287 59.957 68.978 60.11 68.697A0.375 0.375 0 0 1 60.673 68.62L77.15 82.64C77.427 82.855 77.595 83.17 77.622 83.519 77.665 84.01 77.404 84.479 76.962 84.702A1.19 1.19 0 0 1 75.622 84.52L68.733 78.597V78.6A1.2 1.2 0 0 0 67.865 78.316 1.17 1.17 0 0 0 67.052 78.73 1.204 1.204 0 0 0 67.182 80.42L73.091 85.5C73.333 85.706 73.481 86.003 73.501 86.32A1.201 1.201 0 0 1 71.501 87.32L65.592 82.242V82.238A1.2 1.2 0 0 0 63.856 82.33 1.2 1.2 0 0 0 63.572 83.234C63.607 83.558 63.77 83.859 64.032 84.058L68.815 88.159H68.81A1.21 1.21 0 0 1 69.08 89.922C68.87 90.187 68.556 90.347 68.216 90.371A1.2 1.2 0 0 1 67.302 90.037L63.302 86.616V86.62A1.202 1.202 0 0 0 61.74 88.44L64.119 90.44H64.123A1.21 1.21 0 0 1 62.553 92.269L60.473 90.48H60.47A3.58 3.58 0 0 0 61.142 87.32 3.58 3.58 0 0 0 59.002 84.897 3.59 3.59 0 0 0 58.572 80.804 3.6 3.6 0 0 0 54.58 79.788C54.377 79.288 54.06 78.843 53.662 78.48 52.932 77.82 51.962 77.49 50.982 77.57A3.48 3.48 0 0 0 48.982 78.41 3.61 3.61 0 0 0 46.376 76.596 3.59 3.59 0 0 0 43.353 77.55zM30.88 69.77A32.1 32.1 0 0 1 18.88 57.499C16 52.109 14.489 45.6 14.4 37.85A0.2 0.2 0 0 0 14.4 37.76V22.519A67.35 67.35 0 0 0 40.281 15.219 67.3 67.3 0 0 0 66.162 22.518V37.76C66.09 44.632 64.911 51.29 61.871 57.113V57.109A5.2 5.2 0 0 0 59.001 58.399L57.64 59.577 51.063 60.066 48.443 58.804V58.808A2.51 2.51 0 0 0 47.18 55.621L41.84 53.05A2.54 2.54 0 0 0 39.817 52.894 2.54 2.54 0 0 0 38.33 54.281zM44.77 82.578C45.088 82.562 45.385 82.414 45.59 82.172L46.662 80.933V80.93C46.981 80.56 47.048 80.035 46.83 79.597A1.205 1.205 0 0 0 44.841 79.34L43.77 80.6A1.2 1.2 0 0 0 44.77 82.601zM68.77 58.148L64.412 57.339A37.7 37.7 0 0 0 67.251 49.21 52.7 52.7 0 0 0 68.521 37.77V21.397A1.19 1.19 0 0 0 67.32 20.211 67 67 0 0 1 53.591 17.91 64 64 0 0 1 40.802 12.82 1.18 1.18 0 0 0 39.673 12.82 65.2 65.2 0 0 1 13.091 20.2 1.193 1.193 0 0 0 12.001 21.397V37.761A0.6 0.6 0 0 0 12.002 37.878C12.092 46.027 13.682 52.878 16.784 58.628A34.43 34.43 0 0 0 29.853 71.94 2.53 2.53 0 0 0 31.232 75.12L36.583 77.69H36.58A2.52 2.52 0 0 0 39.853 76.69C40.052 76.765 40.243 76.866 40.41 77A6 6 0 0 0 41.693 79.396 3.6 3.6 0 0 0 41.13 80.851L40.29 81.112C29.563 77.78 21.497 72.558 16.091 65.452 10.685 58.342 7.896 49.124 7.721 37.788V16.05A60.8 60.8 0 0 0 40.29 7.59 60.85 60.85 0 0 0 72.851 16.05V37.788A58 58 0 0 1 71.68 49.19 43.7 43.7 0 0 1 68.81 58.19zM41.58 83.198C40.818 83.439 40.408 83.64 39.93 83.489 28.544 80.043 19.962 74.508 14.181 66.878 8.4 59.255 5.455 49.559 5.341 37.802V14.8A1.17 1.17 0 0 1 5.74 13.906C5.994 13.676 6.334 13.57 6.673 13.61A62 62 0 0 0 24.001 11.801 57.5 57.5 0 0 0 39.673 5.18 1.16 1.16 0 0 1 40.931 5.18 57.4 57.4 0 0 0 56.591 11.8 62.4 62.4 0 0 0 74.001 13.64 1.17 1.17 0 0 1 74.872 13.974C75.102 14.195 75.236 14.508 75.232 14.828V37.95A60 60 0 0 1 74.002 49.68 45.5 45.5 0 0 1 71.2 58.601L73.29 58.98A2.8 2.8 0 0 0 74.83 58.859L77.547 57.859H77.552A2.52 2.52 0 0 1 79.162 54.859L84.86 52.859A2.533 2.533 0 0 1 88.07 54.398L94.513 72.757V72.761A2.53 2.53 0 0 1 93 75.999L87.291 78A2.53 2.53 0 0 1 84.15 76.63C83.689 76.764 83.236 76.94 82.802 77.147A10.3 10.3 0 0 1 78.622 80.749L78.852 80.96A3.57 3.57 0 0 1 79.092 86 3.57 3.57 0 0 1 75.841 87.14 3.594 3.594 0 0 1 71.631 89.92 3.5 3.5 0 0 1 70.801 91.531 3.6 3.6 0 0 1 66.802 92.46C66.642 92.947 66.384 93.4 66.04 93.787A3.61 3.61 0 0 1 60.97 94.05L58.97 92.312 58.26 93.152 58.262 93.148A3.6 3.6 0 0 1 53.181 93.398 3.52 3.52 0 0 1 52.001 91.23 3.586 3.586 0 0 1 48.4 88.1 3.59 3.59 0 0 1 44.763 85 3.62 3.62 0 0 1 41.579 83.217zM47.408 83.719L50.298 80.358H50.302C50.51 80.118 50.802 79.969 51.122 79.949A1.202 1.202 0 0 1 52.123 81.949L49.233 85.3A1.212 1.212 0 0 1 47.412 83.718z" fill-rule="evenodd" fill="#b2fcfb" data-fill-palette-color="accent"></path></svg></g></svg></g></svg></g></svg></g></svg></g><g></g></svg></g><defs></defs></svg><rect width="94.79461501778435" height="95.481" fill="none" stroke="none" visibility="hidden"></rect></g></svg></g></svg>